<?xml version="1.0" standalone="no"?>
<!DOCTYPE svg PUBLIC "-//W3C//DTD SVG 20010904//EN"
 "http://www.w3.org/TR/2001/REC-SVG-20010904/DTD/svg10.dtd">
<svg version="1.0" xmlns="http://www.w3.org/2000/svg"
 width="592.000000pt" height="172.000000pt" viewBox="0 0 592.000000 172.000000"
 preserveAspectRatio="xMidYMid meet">
<metadata>
Created by potrace 1.16, written by Peter Selinger 2001-2019
</metadata>
<g transform="translate(0.000000,172.000000) scale(0.100000,-0.100000)"
fill="#000000" stroke="none">
<path d="M0 860 l0 -860 2960 0 2960 0 0 860 0 860 -2960 0 -2960 0 0 -860z
m1989 98 l1 362 80 0 80 0 0 -547 0 -548 -98 100 c-53 55 -226 231 -384 392
l-288 292 0 -360 0 -359 -85 0 -85 0 0 548 0 547 390 -395 389 -395 0 363z
m-1589 -83 l0 -445 155 0 155 0 0 -70 0 -70 -235 0 -235 0 0 515 0 515 80 0
80 0 0 -445z m600 -70 l0 -515 -80 0 -80 0 0 515 0 515 80 0 80 0 0 -515z
m1522 318 l3 -198 200 198 201 197 109 0 110 0 -233 -228 -234 -227 231 -284
c127 -156 231 -285 231 -287 0 -2 -47 -4 -105 -4 l-104 0 -187 230 -187 230
-70 0 c-39 0 -67 -4 -62 -8 6 -5 29 -23 53 -41 l42 -33 0 -189 0 -189 -80 0
-80 0 0 515 0 515 80 0 80 0 2 -197z"/>
</g>
</svg>
