<svg xmlns="http://www.w3.org/2000/svg" width="1200" height="1200" viewBox="0 0 1200 1200" version="1.1"><path d="M 487 670.500 C 487 671.611, 488.167 672, 491.500 672 C 498.419 672, 498.677 788.691, 491.759 789.193 C 476.631 790.289, 487.074 793, 506.427 793 C 526 793, 526 793, 526 789.347 C 526 785.693, 526 785.693, 529.474 789.270 C 538.998 799.077, 564.175 795.162, 572.759 782.540 C 583.291 767.052, 582.066 734.075, 570.478 721.187 C 559.912 709.435, 538.378 709.191, 530.534 720.735 C 528 724.464, 528 724.464, 528 696.732 C 528 669, 528 669, 507.500 669 C 489.944 669, 487 669.215, 487 670.500 M 619.251 676.475 C 600.925 681.654, 592.489 693.021, 592.514 712.500 C 592.542 733.678, 600.089 741.646, 628.500 750.488 C 653.995 758.422, 661.763 767.162, 655.344 780.688 C 646.446 799.440, 617.146 790.417, 599.992 763.642 C 591.804 750.862, 590.804 751.464, 591.513 768.750 C 592.584 794.889, 593.619 799.522, 596.818 792.500 C 598.178 789.516, 599.991 789.388, 610.185 791.556 C 650.995 800.239, 675.043 786.888, 675.167 755.481 C 675.228 739.800, 670.279 730.645, 658 723.725 C 653.769 721.340, 649.972 720.003, 629 713.516 C 610.749 707.870, 604.190 697.306, 612.320 686.647 C 623.718 671.703, 646.760 679.915, 661.084 704.024 C 667.609 715.008, 668.308 714.027, 667.838 694.554 C 667.417 677.143, 667.092 675.702, 664.177 678.339 C 661.794 680.496, 659.517 680.433, 650.737 677.968 C 641.024 675.240, 626.121 674.534, 619.251 676.475 M 247 679 C 247 680.650, 247.667 681, 250.808 681 C 254.616 681, 254.616 681, 273.957 734.250 C 284.595 763.538, 293.955 789.188, 294.758 791.250 C 296.909 796.777, 310.299 797.170, 311.815 791.750 C 318.565 767.606, 331.478 723.335, 331.928 722.792 C 332.251 722.403, 337.881 738.491, 344.439 758.542 C 356.129 794.290, 366.344 807.296, 371.722 793.282 C 372.084 792.337, 378.965 766.800, 387.013 736.532 C 401.644 681.500, 401.644 681.500, 407.322 681.200 C 423.295 680.356, 414.189 677, 395.927 677 C 376.527 677, 369.401 680.118, 387.261 680.792 C 391.941 680.969, 395 681.510, 395 682.161 C 395 685.435, 376.488 755.832, 375.906 754.771 C 374.954 753.034, 353 683.317, 353 682.029 C 353 681.463, 355.025 681, 357.500 681 C 361.333 681, 362 680.704, 362 679 C 362 677.051, 361.333 677, 336 677 C 310.667 677, 310 677.051, 310 679 C 310 680.722, 310.667 681, 314.793 681 C 328.824 681, 329.819 733.499, 316.223 756.411 C 315.819 757.092, 295.701 699.723, 290.567 683.250 C 289.897 681.102, 290.118 681, 295.433 681 C 300.333 681, 301 680.761, 301 679 C 301 677.049, 300.333 677, 274 677 C 247.667 677, 247 677.049, 247 679 M 436.528 713.066 C 390.541 720.755, 391.584 788.121, 437.780 793.913 C 458.407 796.500, 473.189 790.382, 479.605 776.602 C 484.225 766.681, 480.294 765.454, 475.482 775.315 C 463.245 800.394, 437.372 791.457, 436.212 761.750 C 435.753 750, 435.753 750, 459.025 750 C 482.296 750, 482.296 750, 481.694 742.190 C 479.960 719.703, 462.845 708.667, 436.528 713.066 M 718 713.105 C 690.518 717.280, 676.068 746.665, 687.911 774.292 C 700.460 803.567, 759 799.490, 759 769.340 C 759 764.994, 756.519 767.027, 753 774.257 C 746.821 786.951, 731.520 792.522, 723.493 785 C 710.795 773.101, 715.878 716, 729.635 716 C 736.616 716, 740.664 727.916, 734 728.851 C 727.517 729.761, 729.073 742.635, 736.190 746.974 C 746.736 753.404, 759.042 746.280, 758.978 733.782 C 758.897 718.014, 741.957 709.466, 718 713.105 M 790 713.062 C 763.521 717.710, 759.285 750.483, 785.674 746.526 C 795.754 745.015, 803.120 727.467, 794.215 726.181 C 789.257 725.465, 791.055 716.777, 796.440 715.426 C 804.121 713.498, 807.548 723.287, 806.795 745 C 806.500 753.500, 806.500 753.500, 795 754.094 C 768.901 755.444, 758.092 766.394, 765.896 783.579 C 771.784 796.543, 797.728 798.947, 805.605 787.258 C 807.716 784.125, 807.716 784.125, 809.964 787.166 C 821.175 802.328, 847.858 795.630, 851.024 776.859 C 852.452 768.389, 850.273 764.162, 848.658 772.272 C 846.752 781.846, 845.591 784.487, 843.135 784.835 C 838.767 785.453, 838.531 784.206, 837.897 757.202 C 836.928 715.917, 826.817 706.598, 790 713.062 M 911 712.876 C 904.424 714.317, 898.304 718.808, 895.164 724.500 C 894.262 726.135, 894.055 725.359, 894.030 720.250 C 894 714, 894 714, 874 714 C 854.626 714, 843.972 716.159, 858.250 717.193 C 865.186 717.694, 865.446 789, 858.513 789 C 854.667 789, 854 789.295, 854 791 C 854 792.943, 854.667 793, 877.500 793 C 900.333 793, 901 792.943, 901 791 C 901 789.373, 900.333 789, 897.427 789 C 892.433 789, 892.307 739.966, 897.275 729.848 C 901.928 720.374, 909.274 717.904, 911.694 725 C 914.891 734.375, 913.248 788.849, 909.758 789.187 C 894.736 790.639, 906.915 793, 929.427 793 C 952.333 793, 953 792.943, 953 791 C 953 789.296, 952.333 789, 948.500 789 C 944 789, 944 789, 944 761.182 C 944 717.926, 936.702 707.244, 911 712.876 M 440.137 718.084 C 431.822 727.008, 434.493 747, 444 747 C 452 747, 452 747, 451.994 736.750 C 451.985 718.763, 446.925 710.798, 440.137 718.084 M 535.986 721.449 C 524.913 727.475, 524.165 784.640, 535.110 788.393 C 545.034 791.795, 549.145 776.928, 547.522 743.500 C 546.467 721.778, 544.010 717.081, 535.986 721.449 M 801.451 758.131 C 794.721 761.400, 793.571 787.783, 800.201 786.819 C 804.405 786.208, 806.341 780.800, 806.818 768.329 C 807.289 756.029, 806.981 755.444, 801.451 758.131" stroke="none" fill="#eaeaeb" fill-rule="evenodd"/><path d="M 548 232.066 C 410.222 238.401, 314.068 294.711, 275.643 391.567 C 250.849 454.063, 252.495 579.779, 278.981 646.452 C 280.641 650.632, 282 654.265, 282 654.526 C 282 654.787, 258.402 655, 229.559 655 C 167.012 655, 171.126 649.064, 202.184 694.500 C 216.470 715.400, 228.551 733.217, 229.030 734.093 C 229.688 735.295, 223.300 745.357, 203 775.093 C 176.097 814.500, 176.097 814.500, 276.529 814.755 C 376.961 815.010, 376.961 815.010, 377.231 886.432 C 377.533 966.616, 376.918 960.255, 384.892 965.684 C 389.925 969.111, 390.208 969.116, 549.073 968.800 C 732.001 968.436, 710.757 973.163, 712.195 932.500 C 714.461 868.410, 712.200 870.547, 779.314 869.086 C 831.309 867.954, 830.530 868.084, 840.480 858.912 C 849.331 850.753, 864 825.430, 864 818.309 C 864 815.012, 864 815.012, 943.951 814.756 C 1023.903 814.500, 1023.903 814.500, 997 775.093 C 976.700 745.357, 970.312 735.295, 970.970 734.093 C 971.449 733.217, 983.530 715.400, 997.816 694.500 C 1028.766 649.221, 1031.225 655, 981.009 655 C 939.136 655, 939.136 655, 935.463 647.792 C 930.475 638.004, 922.136 624.275, 906.845 600.674 C 899.780 589.769, 894 580.657, 894 580.424 C 894 580.191, 897.055 580, 900.788 580 C 920.806 580, 921.952 576.778, 921.952 520.500 C 921.952 461.477, 922.101 461.817, 895.922 461.158 C 882.343 460.816, 882.343 460.816, 883.776 453.658 C 887.788 433.607, 885.621 424.576, 867.779 387 C 818.408 283.024, 741.756 238.880, 598.676 232.026 C 575.727 230.926, 572.734 230.929, 548 232.066 M 528.297 280.250 C 529.021 297.425, 533.159 315.438, 540.302 332.500 C 542.772 338.402, 543.429 338.965, 547.874 338.985 C 585.483 339.155, 636.733 367.180, 658.235 399.334 C 660.798 403.168, 660.798 403.168, 661.872 398.162 C 672.773 347.331, 646.828 269.395, 618.426 267.657 C 551.286 263.549, 527.732 266.840, 528.297 280.250 M 489.075 272.610 C 468.258 276.363, 445 282.313, 445 283.886 C 445 287.907, 485.951 345.054, 501.304 362.459 C 505.679 367.417, 505.679 367.417, 511.589 364.796 C 519.271 361.390, 524.497 360.012, 529.763 360.006 C 534.025 360, 534.025 360, 530.543 353.086 C 518.346 328.866, 512.661 309.173, 511.464 287.001 C 510.397 267.234, 512.258 268.430, 489.075 272.610 M 654.219 274.250 C 689.373 328.828, 690.830 403.293, 657.712 452.772 C 652.407 460.697, 652.407 460.697, 656.732 469.099 C 675.449 505.464, 674.156 554.279, 653.614 586.820 C 652.176 589.097, 651 591.163, 651 591.411 C 651 591.658, 657.188 588.906, 664.750 585.294 C 672.313 581.682, 684.350 576.132, 691.500 572.961 C 716.283 561.969, 732.243 529.630, 734.909 485 C 736.543 457.653, 742.183 442.786, 756.347 428.486 C 769.721 414.984, 766.705 415.568, 807.672 418.548 C 826.804 419.940, 843.200 420.949, 844.108 420.790 C 849.678 419.812, 817.314 362.879, 798.115 339.881 C 771.148 307.576, 727.093 285.508, 666.699 274.049 C 652.601 271.374, 652.369 271.378, 654.219 274.250 M 420.472 292.363 C 406.973 298.874, 367.034 323.392, 367.009 325.183 C 367.001 325.828, 405.428 384.561, 407.016 386.331 C 407.426 386.788, 411.023 383.996, 415.010 380.127 C 426.681 368.797, 451.352 353.029, 463.948 348.848 C 465.001 348.499, 463.323 345.520, 457.799 337.934 C 448.030 324.519, 437.246 307.501, 431.957 297.153 C 429.666 292.669, 427.712 289, 427.617 289 C 427.522 289, 424.306 290.513, 420.472 292.363 M 342.688 347.019 C 296.935 393.800, 284.210 463.235, 299.006 585.382 C 300.064 594.117, 301.123 601.457, 301.359 601.693 C 309.934 610.267, 424.239 539.370, 424.436 525.355 C 425.058 481.230, 445.055 444.654, 481.746 420.531 C 485.992 417.740, 485.992 417.740, 485.364 409.578 C 484.661 400.423, 486.254 393.053, 490.723 384.795 C 493.030 380.531, 482.003 363, 477.015 363 C 467.900 363, 440.380 380.945, 421.178 399.410 C 403.570 416.342, 406.998 418.427, 376.929 372.500 C 364.686 353.800, 354.280 338.059, 353.804 337.519 C 353.272 336.917, 348.987 340.579, 342.688 347.019 M 555.099 360.963 C 556.350 363.187, 560.505 368.493, 564.333 372.754 C 571.501 380.731, 576.313 389.435, 577.483 396.542 C 579.118 406.470, 578.545 405.717, 586.319 408.166 C 602.756 413.343, 620.166 424.155, 633.657 437.564 C 642.333 446.187, 642.768 445.965, 651.905 428.257 C 655.552 421.190, 632.101 391.123, 613.536 379.062 C 597.361 368.554, 585.236 364.061, 555.163 357.433 C 552.826 356.918, 552.826 356.918, 555.099 360.963 M 522.379 378.774 C 502.631 385.836, 496.510 410.228, 510.563 425.858 C 528.215 445.492, 561 432.695, 561 406.171 C 561 386.557, 540.762 372.200, 522.379 378.774 M 339.479 387.358 C 318.133 397.298, 317.286 426.491, 338.043 436.864 C 360.604 448.137, 384.842 426.362, 376.010 402.755 C 370.658 388.452, 353.059 381.034, 339.479 387.358 M 345.225 404.004 C 334.226 410.710, 343.503 427.445, 354.940 421.531 C 361.911 417.926, 362.310 407.989, 355.647 403.926 C 351.651 401.490, 349.320 401.507, 345.225 404.004 M 572.598 428.569 C 558.303 455.873, 521.207 461.078, 498.933 438.907 C 492.645 432.648, 488.301 434.382, 473.140 449.198 C 389.233 531.197, 485.044 671.694, 589.211 619.405 C 673.943 576.873, 673.710 463.723, 588.818 427.773 C 575.631 422.189, 575.947 422.174, 572.598 428.569 M 768.201 438.987 C 757.422 449.938, 753.357 462.598, 751.978 489.512 C 750.488 518.602, 744.027 538.344, 727.366 564.713 C 725.522 567.632, 724.498 570.190, 725.039 570.524 C 729.354 573.191, 767.150 585.362, 777.847 587.529 C 794.129 590.828, 813.454 585.026, 830.824 571.623 C 841.889 563.086, 841.881 563, 830.023 563 C 810.312 563, 800.788 549.133, 800.810 520.467 C 800.831 492.824, 811.946 478, 832.650 478 C 843.215 478, 844 477.866, 844 476.061 C 844 474.994, 845.356 468.581, 847.014 461.811 C 850.901 445.930, 851.773 439.006, 849.888 438.984 C 849.124 438.976, 833.425 437.858, 815 436.500 C 770.102 433.191, 774.117 432.978, 768.201 438.987 M 530 458.990 C 468.241 475.533, 460.744 558.967, 518.529 586.645 C 564.178 608.511, 617.285 572.629, 614.748 521.635 C 612.599 478.472, 571.284 447.931, 530 458.990 M 540 474.653 C 515.794 477.666, 496.718 499.856, 496.718 525 C 496.718 570.047, 550.833 592.352, 582.732 560.453 C 616.700 526.485, 587.915 468.689, 540 474.653 M 823.574 497.250 C 817.205 506.988, 816.136 528.771, 821.500 539.500 C 832.816 562.133, 888 546.378, 888 520.514 C 888 497.459, 835.773 478.600, 823.574 497.250 M 321.500 519.417 C 310.978 524.114, 308.366 537.566, 316.413 545.613 C 325.086 554.286, 339.609 550.712, 343.105 539.044 C 346.969 526.145, 333.612 514.011, 321.500 519.417 M 366.250 589.821 C 333.113 606.117, 306 619.818, 306 620.268 C 306 621.702, 312.814 639.342, 316.447 647.314 C 321.230 657.809, 346.805 659.575, 348.819 649.549 C 354.884 619.349, 399.491 620.120, 403.655 650.497 C 404.523 656.834, 544 657.831, 544 651.500 C 544 648.110, 543.880 648, 540.176 648 C 495.519 648, 447.615 612.132, 430.996 566.250 C 428.149 558.389, 435.921 555.560, 366.250 589.821 M 849.551 578.917 C 841.832 591.408, 801.993 607.456, 782.985 605.732 C 777.172 605.205, 777.172 605.205, 771.509 618.153 C 766.844 628.819, 757 653.621, 757 654.708 C 757 654.869, 790.075 655, 830.500 655 C 870.925 655, 904 654.757, 904 654.460 C 904 651.192, 892.472 633.983, 871.667 606.193 C 862.688 594.200, 854.493 582.950, 853.455 581.194 C 851.510 577.900, 850.532 577.330, 849.551 578.917 M 682.500 597.514 C 625.051 627.198, 583.369 644.947, 567.122 646.645 C 561.369 647.246, 560.892 647.476, 561.409 649.401 C 561.719 650.555, 561.979 652.288, 561.986 653.250 C 562.014 656.771, 581.493 655.755, 584.593 652.072 C 590.739 644.768, 601.669 644.316, 609.318 651.048 C 622.969 663.065, 738.172 655.907, 742.914 642.748 C 746.690 632.272, 749.395 625.644, 758.578 604.365 C 759.931 601.230, 759.931 601.230, 749.215 597.743 C 743.322 595.824, 732.348 591.948, 724.829 589.128 C 707.902 582.779, 712.955 581.777, 682.500 597.514 M 706.500 593.400 C 690.070 600.642, 691.622 626.190, 708.781 630.956 C 727.305 636.101, 741.367 616.242, 730.659 600.060 C 726.044 593.087, 714.458 589.893, 706.500 593.400 M 370.973 645.704 C 361.942 651.928, 363.769 655, 376.500 655 C 387.729 655, 388.006 654.845, 385.483 649.967 C 382.681 644.549, 375.647 642.482, 370.973 645.704 M 487 670.500 C 487 671.611, 488.167 672, 491.500 672 C 498.419 672, 498.677 788.691, 491.759 789.193 C 476.631 790.289, 487.074 793, 506.427 793 C 526 793, 526 793, 526 789.347 C 526 785.693, 526 785.693, 529.474 789.270 C 538.998 799.077, 564.175 795.162, 572.759 782.540 C 583.291 767.052, 582.066 734.075, 570.478 721.187 C 559.912 709.435, 538.378 709.191, 530.534 720.735 C 528 724.464, 528 724.464, 528 696.732 C 528 669, 528 669, 507.500 669 C 489.944 669, 487 669.215, 487 670.500 M 619.251 676.475 C 600.925 681.654, 592.489 693.021, 592.514 712.500 C 592.542 733.678, 600.089 741.646, 628.500 750.488 C 653.995 758.422, 661.763 767.162, 655.344 780.688 C 646.446 799.440, 617.146 790.417, 599.992 763.642 C 591.804 750.862, 590.804 751.464, 591.513 768.750 C 592.584 794.889, 593.619 799.522, 596.818 792.500 C 598.178 789.516, 599.991 789.388, 610.185 791.556 C 650.995 800.239, 675.043 786.888, 675.167 755.481 C 675.228 739.800, 670.279 730.645, 658 723.725 C 653.769 721.340, 649.972 720.003, 629 713.516 C 610.749 707.870, 604.190 697.306, 612.320 686.647 C 623.718 671.703, 646.760 679.915, 661.084 704.024 C 667.609 715.008, 668.308 714.027, 667.838 694.554 C 667.417 677.143, 667.092 675.702, 664.177 678.339 C 661.794 680.496, 659.517 680.433, 650.737 677.968 C 641.024 675.240, 626.121 674.534, 619.251 676.475 M 247 679 C 247 680.650, 247.667 681, 250.808 681 C 254.616 681, 254.616 681, 273.957 734.250 C 284.595 763.538, 293.955 789.188, 294.758 791.250 C 296.909 796.777, 310.299 797.170, 311.815 791.750 C 318.565 767.606, 331.478 723.335, 331.928 722.792 C 332.251 722.403, 337.881 738.491, 344.439 758.542 C 356.129 794.290, 366.344 807.296, 371.722 793.282 C 372.084 792.337, 378.965 766.800, 387.013 736.532 C 401.644 681.500, 401.644 681.500, 407.322 681.200 C 423.295 680.356, 414.189 677, 395.927 677 C 376.527 677, 369.401 680.118, 387.261 680.792 C 391.941 680.969, 395 681.510, 395 682.161 C 395 685.435, 376.488 755.832, 375.906 754.771 C 374.954 753.034, 353 683.317, 353 682.029 C 353 681.463, 355.025 681, 357.500 681 C 361.333 681, 362 680.704, 362 679 C 362 677.051, 361.333 677, 336 677 C 310.667 677, 310 677.051, 310 679 C 310 680.722, 310.667 681, 314.793 681 C 328.824 681, 329.819 733.499, 316.223 756.411 C 315.819 757.092, 295.701 699.723, 290.567 683.250 C 289.897 681.102, 290.118 681, 295.433 681 C 300.333 681, 301 680.761, 301 679 C 301 677.049, 300.333 677, 274 677 C 247.667 677, 247 677.049, 247 679 M 436.528 713.066 C 390.541 720.755, 391.584 788.121, 437.780 793.913 C 458.407 796.500, 473.189 790.382, 479.605 776.602 C 484.225 766.681, 480.294 765.454, 475.482 775.315 C 463.245 800.394, 437.372 791.457, 436.212 761.750 C 435.753 750, 435.753 750, 459.025 750 C 482.296 750, 482.296 750, 481.694 742.190 C 479.960 719.703, 462.845 708.667, 436.528 713.066 M 718 713.105 C 690.518 717.280, 676.068 746.665, 687.911 774.292 C 700.460 803.567, 759 799.490, 759 769.340 C 759 764.994, 756.519 767.027, 753 774.257 C 746.821 786.951, 731.520 792.522, 723.493 785 C 710.795 773.101, 715.878 716, 729.635 716 C 736.616 716, 740.664 727.916, 734 728.851 C 727.517 729.761, 729.073 742.635, 736.190 746.974 C 746.736 753.404, 759.042 746.280, 758.978 733.782 C 758.897 718.014, 741.957 709.466, 718 713.105 M 790 713.062 C 763.521 717.710, 759.285 750.483, 785.674 746.526 C 795.754 745.015, 803.120 727.467, 794.215 726.181 C 789.257 725.465, 791.055 716.777, 796.440 715.426 C 804.121 713.498, 807.548 723.287, 806.795 745 C 806.500 753.500, 806.500 753.500, 795 754.094 C 768.901 755.444, 758.092 766.394, 765.896 783.579 C 771.784 796.543, 797.728 798.947, 805.605 787.258 C 807.716 784.125, 807.716 784.125, 809.964 787.166 C 821.175 802.328, 847.858 795.630, 851.024 776.859 C 852.452 768.389, 850.273 764.162, 848.658 772.272 C 846.752 781.846, 845.591 784.487, 843.135 784.835 C 838.767 785.453, 838.531 784.206, 837.897 757.202 C 836.928 715.917, 826.817 706.598, 790 713.062 M 911 712.876 C 904.424 714.317, 898.304 718.808, 895.164 724.500 C 894.262 726.135, 894.055 725.359, 894.030 720.250 C 894 714, 894 714, 874 714 C 854.626 714, 843.972 716.159, 858.250 717.193 C 865.186 717.694, 865.446 789, 858.513 789 C 854.667 789, 854 789.295, 854 791 C 854 792.943, 854.667 793, 877.500 793 C 900.333 793, 901 792.943, 901 791 C 901 789.373, 900.333 789, 897.427 789 C 892.433 789, 892.307 739.966, 897.275 729.848 C 901.928 720.374, 909.274 717.904, 911.694 725 C 914.891 734.375, 913.248 788.849, 909.758 789.187 C 894.736 790.639, 906.915 793, 929.427 793 C 952.333 793, 953 792.943, 953 791 C 953 789.296, 952.333 789, 948.500 789 C 944 789, 944 789, 944 761.182 C 944 717.926, 936.702 707.244, 911 712.876 M 440.137 718.084 C 431.822 727.008, 434.493 747, 444 747 C 452 747, 452 747, 451.994 736.750 C 451.985 718.763, 446.925 710.798, 440.137 718.084 M 535.986 721.449 C 524.913 727.475, 524.165 784.640, 535.110 788.393 C 545.034 791.795, 549.145 776.928, 547.522 743.500 C 546.467 721.778, 544.010 717.081, 535.986 721.449 M 801.451 758.131 C 794.721 761.400, 793.571 787.783, 800.201 786.819 C 804.405 786.208, 806.341 780.800, 806.818 768.329 C 807.289 756.029, 806.981 755.444, 801.451 758.131 M 448 815.336 C 448 815.520, 446.475 822.473, 444.612 830.787 C 441.224 845.903, 441.224 845.903, 446.494 862.702 C 451.764 879.500, 451.764 879.500, 454.075 907.250 C 456.386 935, 456.386 935, 472.943 934.874 C 489.500 934.747, 489.500 934.747, 480.603 933.454 C 466.811 931.448, 466.581 931.086, 466.180 910.729 C 465.660 884.321, 466.811 882.825, 485.651 885.415 C 503.469 887.865, 502 888.472, 502 878.662 C 502 870.325, 502 870.325, 487.750 868.528 C 465.986 865.784, 466.011 865.814, 466.011 842.500 C 466.011 816.176, 465.823 816.298, 498.750 821.376 C 500.706 821.677, 501 821.283, 501 818.361 C 501 815, 501 815, 474.500 815 C 459.925 815, 448 815.151, 448 815.336 M 519 824.050 C 519 840.973, 515.731 842.339, 487.202 837.338 C 483.903 836.759, 483.903 836.759, 484.202 843.603 C 484.500 850.448, 484.500 850.448, 499.359 852.500 C 519.974 855.348, 519 854.008, 519 879.509 C 519 908.685, 519.651 908.189, 487.750 903.317 C 484 902.744, 484 902.744, 484 909.353 C 484 917.042, 482.390 916.142, 500.426 918.535 C 516.449 920.662, 519 922.335, 519 930.723 C 519 936.311, 535.108 937.720, 536.466 932.250 C 538.309 924.824, 541.870 923.933, 559.500 926.488 C 565 927.285, 569.837 927.951, 570.250 927.968 C 581.316 928.436, 568.723 914.128, 556.750 912.629 C 535.315 909.946, 535.758 910.578, 536.193 883.304 C 536.621 856.467, 536.517 856.539, 567.250 861.639 C 571 862.262, 571 862.262, 571 855.650 C 571 847.947, 572.581 848.830, 554.500 846.440 C 536.719 844.090, 536 843.293, 536 825.935 C 536 815, 536 815, 527.500 815 C 519 815, 519 815, 519 824.050 M 554 822.153 C 554 825.919, 554.356 829, 554.790 829 C 557.477 829, 579.147 832.194, 582.244 833.046 C 588.276 834.706, 589 837.208, 589 856.385 C 589 881.332, 588.390 882.085, 570.203 879.609 C 552.442 877.190, 554 876.541, 554 886.362 C 554 894.724, 554 894.724, 567.750 896.493 C 589.126 899.243, 589 899.100, 589 920.565 C 589 935, 589 935, 597.500 935 C 605.640 935, 606.001 934.905, 606.028 932.750 C 606.444 899.856, 607.631 894.160, 617.501 877.691 C 627.745 860.597, 627.869 859.581, 624.407 821.261 C 623.472 810.913, 554 811.794, 554 822.153 M 691.500 818.874 C 722.060 838.391, 723.906 839.003, 752.163 838.965 C 795.780 838.906, 815.309 836.919, 819.812 832.079 C 821.881 829.857, 829 817.030, 829 815.525 C 829 815.236, 796.712 815.009, 757.250 815.021 C 685.500 815.042, 685.500 815.042, 691.500 818.874 M 411 826.500 C 411 833.855, 425.324 835.468, 426.542 828.250 C 426.890 826.188, 427.391 823.712, 427.655 822.750 C 428.085 821.182, 427.243 821, 419.567 821 C 411 821, 411 821, 411 826.500 M 642.015 825.250 C 642.040 832.227, 641.589 832.077, 661.784 831.773 C 679.922 831.500, 679.922 831.500, 671.347 826.250 C 659.065 818.730, 641.990 818.148, 642.015 825.250 M 411 844 C 411 849, 411 849, 417.500 849 C 424 849, 424 849, 424 845.582 C 424 843.702, 424.273 841.452, 424.607 840.582 C 425.125 839.231, 424.177 839, 418.107 839 C 411 839, 411 839, 411 844 M 643.015 842.750 C 643.042 849.321, 641.636 849.056, 674.985 848.765 C 708.770 848.470, 709.341 848.328, 699.100 842.750 C 692.214 839, 692.214 839, 667.607 839 C 643 839, 643 839, 643.015 842.750 M 411 861.500 C 411 867, 411 867, 420.125 867 C 430.200 867, 430.229 866.966, 427.098 858.750 C 424.726 852.527, 411 854.872, 411 861.500 M 644 861.500 C 644 868.478, 687.068 870.496, 691.736 863.738 C 692.966 861.957, 694.708 859.487, 695.608 858.250 C 697.244 856, 697.244 856, 670.622 856 C 644 856, 644 856, 644 861.500 M 411 879 C 411 884, 411 884, 422.952 884 C 434.904 884, 434.904 884, 433.463 879.250 C 432.670 876.638, 432.017 874.388, 432.011 874.250 C 431.834 870.160, 411 874.869, 411 879 M 637.692 877.750 C 636.409 879.813, 635.027 882.063, 634.621 882.750 C 634.038 883.736, 638.914 883.998, 657.691 883.990 C 681.500 883.980, 681.500 883.980, 683.154 878.990 C 685.450 872.061, 641.969 870.875, 637.692 877.750 M 411 896.500 C 411 902, 411 902, 423.500 902 C 437.481 902, 437.012 902.311, 435.375 894.125 C 434.028 887.391, 411 889.635, 411 896.500 M 627.513 894.980 C 622.846 902.372, 621.724 902.064, 652.250 901.766 C 679.500 901.500, 679.500 901.500, 679.802 896.250 C 680.224 888.926, 632.073 887.756, 627.513 894.980 M 411 914 C 411 919, 411 919, 424.250 919.001 C 437.500 919.001, 437.500 919.001, 437.153 914.001 C 436.605 906.092, 411 906.091, 411 914 M 624.607 910.582 C 621.437 918.843, 621.940 919, 651.500 919 C 679 919, 679 919, 679 914 C 679 908.805, 626.553 905.510, 624.607 910.582 M 411 930.500 C 411 935, 411 935, 425 935 C 440.192 935, 439.602 935.259, 438.375 929.125 C 437.177 923.135, 411 924.450, 411 930.500 M 624 930.500 C 624 935, 624 935, 651 935 C 678 935, 678 935, 678 930.500 C 678 926, 678 926, 651 926 C 624 926, 624 926, 624 930.500" stroke="none" fill="#2c5494" fill-rule="evenodd"/></svg>